# MagicaVoxel @ Ephtracy

# material
mtllib Key.mtl
usemtl palette

# normals
vn -1 0 0
vn 1 0 0
vn 0 0 1
vn 0 0 -1
vn 0 -1 0
vn 0 1 0

# texcoords
vt 0.0175781 0.5
vt 0.958984 0.5

# verts
v -2 0 6
v -2 0 4
v -2 1 6
v -2 1 4
v -1 0 9
v -1 0 8
v -1 0 6
v -1 0 4
v -1 0 2
v -1 1 9
v -1 1 8
v -1 1 6
v -1 1 4
v -1 1 2
v 0 0 9
v 0 0 8
v 0 0 6
v 0 0 4
v 0 0 2
v 0 1 9
v 0 1 8
v 0 1 6
v 0 1 4
v 0 1 2
v 1 0 6
v 1 0 4
v 1 1 6
v 1 1 4
v -1 0 9
v -1 1 9
v 0 0 9
v 0 1 9
v -2 0 6
v -2 1 6
v -1 0 6
v -1 1 6
v 0 0 6
v 0 1 6
v 1 0 6
v 1 1 6
v -2 0 4
v -2 1 4
v -1 0 4
v -1 1 4
v 0 0 4
v 0 1 4
v 1 0 4
v 1 1 4
v -1 0 2
v -1 1 2
v 0 0 2
v 0 1 2
v -1 0 9
v 0 0 9
v -1 0 8
v 0 0 8
v -2 0 6
v -1 0 6
v 0 0 6
v 1 0 6
v -2 0 4
v -1 0 4
v 0 0 4
v 1 0 4
v -1 0 2
v 0 0 2
v -1 1 9
v 0 1 9
v -1 1 8
v 0 1 8
v -2 1 6
v -1 1 6
v 0 1 6
v 1 1 6
v -2 1 4
v -1 1 4
v 0 1 4
v 1 1 4
v -1 1 2
v 0 1 2

# faces
f 3/1/1 2/1/1 1/1/1
f 4/1/1 2/1/1 3/1/1
f 10/2/1 6/2/1 5/2/1
f 11/1/1 7/1/1 6/1/1
f 11/2/1 6/2/1 10/2/1
f 12/1/1 7/1/1 11/1/1
f 13/1/1 9/1/1 8/1/1
f 14/1/1 9/1/1 13/1/1
f 15/2/2 16/2/2 20/2/2
f 16/1/2 17/1/2 21/1/2
f 20/2/2 16/2/2 21/2/2
f 21/1/2 17/1/2 22/1/2
f 18/1/2 19/1/2 23/1/2
f 23/1/2 19/1/2 24/1/2
f 25/1/2 26/1/2 27/1/2
f 27/1/2 26/1/2 28/1/2
f 31/2/3 30/2/3 29/2/3
f 32/2/3 30/2/3 31/2/3
f 35/1/3 34/1/3 33/1/3
f 36/1/3 34/1/3 35/1/3
f 39/1/3 38/1/3 37/1/3
f 40/1/3 38/1/3 39/1/3
f 41/1/4 42/1/4 43/1/4
f 43/1/4 42/1/4 44/1/4
f 45/1/4 46/1/4 47/1/4
f 47/1/4 46/1/4 48/1/4
f 49/1/4 50/1/4 51/1/4
f 51/1/4 50/1/4 52/1/4
f 55/2/5 54/2/5 53/2/5
f 56/2/5 54/2/5 55/2/5
f 58/1/5 56/1/5 55/1/5
f 59/1/5 56/1/5 58/1/5
f 61/1/5 59/1/5 58/1/5
f 61/1/5 60/1/5 59/1/5
f 61/1/5 58/1/5 57/1/5
f 62/1/5 60/1/5 61/1/5
f 63/1/5 60/1/5 62/1/5
f 64/1/5 60/1/5 63/1/5
f 65/1/5 63/1/5 62/1/5
f 66/1/5 63/1/5 65/1/5
f 67/2/6 68/2/6 69/2/6
f 69/2/6 68/2/6 70/2/6
f 69/1/6 70/1/6 72/1/6
f 72/1/6 70/1/6 73/1/6
f 72/1/6 73/1/6 75/1/6
f 73/1/6 74/1/6 75/1/6
f 71/1/6 72/1/6 75/1/6
f 75/1/6 74/1/6 76/1/6
f 76/1/6 74/1/6 77/1/6
f 77/1/6 74/1/6 78/1/6
f 76/1/6 77/1/6 79/1/6
f 79/1/6 77/1/6 80/1/6
