# MagicaVoxel @ Ephtracy

# material
mtllib LegendaryRustning.mtl
usemtl palette

# normals
vn -1 0 0
vn 1 0 0
vn 0 0 1
vn 0 0 -1
vn 0 -1 0
vn 0 1 0

# texcoords
vt 0.185547 0.5
vt 0.841797 0.5
vt 0.994141 0.5

# verts
v -51 55 11
v -51 55 -8
v -51 56 10
v -51 56 -7
v -51 69 10
v -51 69 -7
v -51 70 11
v -51 70 -8
v -38 0 21
v -38 0 -18
v -38 55 11
v -38 55 -8
v -38 70 11
v -38 70 -8
v -38 75 21
v -38 75 -18
v -37 61 11
v -37 61 10
v -37 62 11
v -37 62 10
v -35 7 20
v -35 7 19
v -35 27 20
v -35 27 19
v -21 43 22
v -21 43 21
v -21 67 22
v -21 67 21
v -20 21 22
v -20 21 21
v -20 23 22
v -20 23 21
v -12 75 9
v -12 75 -8
v -12 78 9
v -12 78 -8
v -2 23 22
v -2 23 21
v -2 43 22
v -2 43 21
v -2 45 22
v -2 45 21
v -2 67 22
v -2 67 21
v 5 73 8
v 5 73 -7
v 5 75 8
v 5 75 -7
v 5 78 8
v 5 78 -7
v 17 20 21
v 17 20 20
v 17 21 22
v 17 21 21
v 17 43 22
v 17 43 21
v 17 43 20
v 31 0 19
v 31 0 -16
v 31 56 9
v 31 56 -7
v 31 69 9
v 31 69 -7
v 31 73 19
v 31 73 -16
v -38 61 11
v -38 61 10
v -38 62 11
v -38 62 10
v -36 0 19
v -36 0 -16
v -36 7 20
v -36 7 19
v -36 27 20
v -36 27 19
v -36 56 10
v -36 56 -7
v -36 69 10
v -36 69 -7
v -36 73 19
v -36 73 -16
v -19 45 22
v -19 45 21
v -19 67 22
v -19 67 21
v -11 73 8
v -11 73 -7
v -11 75 8
v -11 75 -7
v -11 78 8
v -11 78 -7
v 0 21 22
v 0 21 21
v 0 43 22
v 0 43 21
v 0 45 22
v 0 45 21
v 0 65 22
v 0 65 21
v 6 75 9
v 6 75 -8
v 6 78 9
v 6 78 -8
v 16 20 21
v 16 20 20
v 16 43 21
v 16 43 20
v 19 21 22
v 19 21 21
v 19 45 22
v 19 45 21
v 19 65 22
v 19 65 21
v 19 67 22
v 19 67 21
v 32 61 10
v 32 61 9
v 32 69 10
v 32 69 9
v 33 0 21
v 33 0 -18
v 33 55 11
v 33 55 -8
v 33 56 10
v 33 56 9
v 33 61 10
v 33 61 9
v 33 70 11
v 33 70 -8
v 33 75 21
v 33 75 -18
v 47 55 11
v 47 55 -8
v 47 56 10
v 47 56 -7
v 47 69 10
v 47 69 -7
v 47 70 11
v 47 70 -8
v -21 43 22
v -21 67 22
v -20 21 22
v -20 23 22
v -19 45 22
v -19 67 22
v -2 23 22
v -2 43 22
v -2 45 22
v -2 67 22
v 0 21 22
v 0 43 22
v 0 45 22
v 0 65 22
v 17 21 22
v 17 43 22
v 19 21 22
v 19 45 22
v 19 65 22
v 19 67 22
v -38 0 21
v -38 75 21
v -21 43 21
v -21 67 21
v -20 21 21
v -20 23 21
v -19 45 21
v -19 67 21
v -2 23 21
v -2 43 21
v -2 45 21
v -2 67 21
v 0 21 21
v 0 43 21
v 0 45 21
v 0 65 21
v 16 20 21
v 16 43 21
v 17 20 21
v 17 21 21
v 19 21 21
v 19 45 21
v 19 65 21
v 19 67 21
v 33 0 21
v 33 75 21
v 16 20 20
v 16 43 20
v 17 20 20
v 17 43 20
v -51 55 11
v -51 70 11
v -38 55 11
v -38 70 11
v 33 55 11
v 33 70 11
v 47 55 11
v 47 70 11
v -12 75 9
v -12 78 9
v 6 75 9
v 6 78 9
v -51 56 -7
v -51 69 -7
v -37 56 -7
v -37 69 -7
v -36 56 -7
v -36 69 -7
v -11 73 -7
v -11 75 -7
v -11 78 -7
v 5 73 -7
v 5 75 -7
v 5 78 -7
v 31 56 -7
v 31 69 -7
v 33 56 -7
v 33 69 -7
v 47 56 -7
v 47 69 -7
v -36 0 -16
v -36 73 -16
v 31 0 -16
v 31 73 -16
v -36 7 20
v -36 27 20
v -35 7 20
v -35 27 20
v -36 0 19
v -36 7 19
v -36 27 19
v -36 73 19
v -35 7 19
v -35 27 19
v 31 0 19
v 31 73 19
v -38 61 11
v -38 62 11
v -37 61 11
v -37 62 11
v -51 56 10
v -51 69 10
v -38 61 10
v -38 62 10
v -37 56 10
v -37 61 10
v -37 62 10
v -37 69 10
v -36 56 10
v -36 69 10
v 32 61 10
v 32 69 10
v 33 56 10
v 33 61 10
v 33 69 10
v 47 56 10
v 47 69 10
v 31 56 9
v 31 69 9
v 32 61 9
v 32 69 9
v 33 56 9
v 33 61 9
v -11 73 8
v -11 75 8
v -11 78 8
v 5 73 8
v 5 75 8
v 5 78 8
v -51 55 -8
v -51 70 -8
v -38 55 -8
v -38 70 -8
v -12 75 -8
v -12 78 -8
v 6 75 -8
v 6 78 -8
v 33 55 -8
v 33 70 -8
v 47 55 -8
v 47 70 -8
v -38 0 -18
v -38 75 -18
v 33 0 -18
v 33 75 -18
v -38 0 21
v 33 0 21
v -36 0 19
v 31 0 19
v -36 0 -16
v 31 0 -16
v -38 0 -18
v 33 0 -18
v -20 21 22
v 0 21 22
v 17 21 22
v 19 21 22
v -20 21 21
v 0 21 21
v 17 21 21
v 19 21 21
v -36 27 20
v -35 27 20
v -36 27 19
v -35 27 19
v -21 43 22
v -2 43 22
v 0 43 22
v 17 43 22
v -21 43 21
v -2 43 21
v 0 43 21
v 16 43 21
v 17 43 21
v 16 43 20
v 17 43 20
v -51 55 11
v -38 55 11
v 33 55 11
v 47 55 11
v -51 55 -8
v -38 55 -8
v 33 55 -8
v 47 55 -8
v -38 62 11
v -37 62 11
v -38 62 10
v -37 62 10
v 0 65 22
v 19 65 22
v 0 65 21
v 19 65 21
v -51 69 10
v -37 69 10
v -36 69 10
v 32 69 10
v 33 69 10
v 47 69 10
v 31 69 9
v 32 69 9
v -51 69 -7
v -37 69 -7
v -36 69 -7
v 31 69 -7
v 33 69 -7
v 47 69 -7
v -36 73 19
v 31 73 19
v -11 73 8
v 5 73 8
v -11 73 -7
v 5 73 -7
v -36 73 -16
v 31 73 -16
v -36 7 20
v -35 7 20
v -36 7 19
v -35 7 19
v 16 20 21
v 17 20 21
v 16 20 20
v 17 20 20
v -20 23 22
v -2 23 22
v -20 23 21
v -2 23 21
v -19 45 22
v -2 45 22
v 0 45 22
v 19 45 22
v -19 45 21
v -2 45 21
v 0 45 21
v 19 45 21
v -51 56 10
v -37 56 10
v -36 56 10
v 33 56 10
v 47 56 10
v 31 56 9
v 33 56 9
v -51 56 -7
v -37 56 -7
v -36 56 -7
v 31 56 -7
v 33 56 -7
v 47 56 -7
v -38 61 11
v -37 61 11
v -38 61 10
v -37 61 10
v 32 61 10
v 33 61 10
v 32 61 9
v 33 61 9
v -21 67 22
v -19 67 22
v -2 67 22
v 19 67 22
v -21 67 21
v -19 67 21
v -2 67 21
v 19 67 21
v -51 70 11
v -38 70 11
v 33 70 11
v 47 70 11
v -51 70 -8
v -38 70 -8
v 33 70 -8
v 47 70 -8
v -38 75 21
v 33 75 21
v -12 75 9
v 6 75 9
v -12 75 -8
v 6 75 -8
v -38 75 -18
v 33 75 -18
v -12 78 9
v 6 78 9
v -11 78 8
v 5 78 8
v -11 78 -7
v 5 78 -7
v -12 78 -8
v 6 78 -8

# faces
f 3/1/1 2/1/1 1/1/1
f 4/1/1 2/1/1 3/1/1
f 5/1/1 3/1/1 1/1/1
f 6/1/1 2/1/1 4/1/1
f 7/1/1 5/1/1 1/1/1
f 7/1/1 6/1/1 5/1/1
f 8/1/1 2/1/1 6/1/1
f 8/1/1 6/1/1 7/1/1
f 11/3/1 10/3/1 9/3/1
f 12/3/1 10/3/1 11/3/1
f 13/3/1 11/3/1 9/3/1
f 14/3/1 10/3/1 12/3/1
f 15/3/1 13/3/1 9/3/1
f 15/3/1 14/3/1 13/3/1
f 16/3/1 10/3/1 14/3/1
f 16/3/1 14/3/1 15/3/1
f 19/3/1 18/3/1 17/3/1
f 20/3/1 18/3/1 19/3/1
f 23/3/1 22/3/1 21/3/1
f 24/3/1 22/3/1 23/3/1
f 27/2/1 26/2/1 25/2/1
f 28/2/1 26/2/1 27/2/1
f 31/2/1 30/2/1 29/2/1
f 32/2/1 30/2/1 31/2/1
f 35/1/1 34/1/1 33/1/1
f 36/1/1 34/1/1 35/1/1
f 39/2/1 38/2/1 37/2/1
f 40/2/1 38/2/1 39/2/1
f 43/2/1 42/2/1 41/2/1
f 44/2/1 42/2/1 43/2/1
f 47/3/1 46/3/1 45/3/1
f 48/3/1 46/3/1 47/3/1
f 49/1/1 48/1/1 47/1/1
f 50/1/1 48/1/1 49/1/1
f 54/3/1 52/3/1 51/3/1
f 55/2/1 54/2/1 53/2/1
f 56/3/1 52/3/1 54/3/1
f 56/2/1 54/2/1 55/2/1
f 57/3/1 52/3/1 56/3/1
f 60/3/1 59/3/1 58/3/1
f 61/3/1 59/3/1 60/3/1
f 62/3/1 60/3/1 58/3/1
f 63/3/1 59/3/1 61/3/1
f 64/3/1 62/3/1 58/3/1
f 64/3/1 63/3/1 62/3/1
f 65/3/1 59/3/1 63/3/1
f 65/3/1 63/3/1 64/3/1
f 66/1/2 67/1/2 68/1/2
f 68/1/2 67/1/2 69/1/2
f 70/3/2 71/3/2 73/3/2
f 72/3/2 73/3/2 74/3/2
f 73/3/2 71/3/2 75/3/2
f 74/3/2 73/3/2 75/3/2
f 75/3/2 71/3/2 76/3/2
f 76/3/2 71/3/2 77/3/2
f 75/3/2 76/3/2 78/3/2
f 77/3/2 71/3/2 79/3/2
f 75/3/2 78/3/2 80/3/2
f 78/3/2 79/3/2 80/3/2
f 79/3/2 71/3/2 81/3/2
f 80/3/2 79/3/2 81/3/2
f 82/2/2 83/2/2 84/2/2
f 84/2/2 83/2/2 85/2/2
f 86/3/2 87/3/2 88/3/2
f 88/3/2 87/3/2 89/3/2
f 88/1/2 89/1/2 90/1/2
f 90/1/2 89/1/2 91/1/2
f 92/2/2 93/2/2 94/2/2
f 94/2/2 93/2/2 95/2/2
f 96/2/2 97/2/2 98/2/2
f 98/2/2 97/2/2 99/2/2
f 100/1/2 101/1/2 102/1/2
f 102/1/2 101/1/2 103/1/2
f 104/3/2 105/3/2 106/3/2
f 106/3/2 105/3/2 107/3/2
f 108/2/2 109/2/2 110/2/2
f 110/2/2 109/2/2 111/2/2
f 112/2/2 113/2/2 114/2/2
f 114/2/2 113/2/2 115/2/2
f 116/3/2 117/3/2 118/3/2
f 118/3/2 117/3/2 119/3/2
f 120/3/2 121/3/2 122/3/2
f 122/3/2 121/3/2 123/3/2
f 124/3/2 125/3/2 126/3/2
f 126/3/2 125/3/2 127/3/2
f 120/3/2 122/3/2 128/3/2
f 123/3/2 121/3/2 129/3/2
f 120/3/2 128/3/2 130/3/2
f 128/3/2 129/3/2 130/3/2
f 129/3/2 121/3/2 131/3/2
f 130/3/2 129/3/2 131/3/2
f 132/1/2 133/1/2 134/1/2
f 134/1/2 133/1/2 135/1/2
f 132/1/2 134/1/2 136/1/2
f 135/1/2 133/1/2 137/1/2
f 132/1/2 136/1/2 138/1/2
f 136/1/2 137/1/2 138/1/2
f 137/1/2 133/1/2 139/1/2
f 138/1/2 137/1/2 139/1/2
f 144/2/3 141/2/3 140/2/3
f 145/2/3 141/2/3 144/2/3
f 146/2/3 143/2/3 142/2/3
f 147/2/3 144/2/3 140/2/3
f 148/2/3 144/2/3 147/2/3
f 150/2/3 146/2/3 142/2/3
f 150/2/3 149/2/3 148/2/3
f 150/2/3 148/2/3 147/2/3
f 150/2/3 147/2/3 146/2/3
f 151/2/3 149/2/3 150/2/3
f 152/2/3 149/2/3 151/2/3
f 153/2/3 149/2/3 152/2/3
f 155/2/3 152/2/3 151/2/3
f 156/2/3 155/2/3 154/2/3
f 157/2/3 152/2/3 155/2/3
f 157/2/3 155/2/3 156/2/3
f 158/2/3 149/2/3 153/2/3
f 159/2/3 149/2/3 158/2/3
f 162/3/3 161/3/3 160/3/3
f 163/3/3 161/3/3 162/3/3
f 164/3/3 162/3/3 160/3/3
f 165/3/3 162/3/3 164/3/3
f 167/3/3 161/3/3 163/3/3
f 168/3/3 162/3/3 165/3/3
f 169/3/3 162/3/3 168/3/3
f 170/3/3 167/3/3 166/3/3
f 171/3/3 161/3/3 167/3/3
f 171/3/3 167/3/3 170/3/3
f 172/3/3 164/3/3 160/3/3
f 176/3/3 172/3/3 160/3/3
f 176/3/3 173/3/3 172/3/3
f 177/3/3 173/3/3 176/3/3
f 178/3/3 176/3/3 160/3/3
f 180/3/3 179/3/3 178/3/3
f 181/3/3 175/3/3 174/3/3
f 182/3/3 175/3/3 181/3/3
f 183/3/3 161/3/3 171/3/3
f 184/3/3 182/3/3 181/3/3
f 184/3/3 183/3/3 182/3/3
f 184/3/3 180/3/3 178/3/3
f 184/3/3 178/3/3 160/3/3
f 184/3/3 181/3/3 180/3/3
f 185/3/3 161/3/3 183/3/3
f 185/3/3 183/3/3 184/3/3
f 188/3/3 187/3/3 186/3/3
f 189/3/3 187/3/3 188/3/3
f 192/1/3 191/1/3 190/1/3
f 193/1/3 191/1/3 192/1/3
f 196/1/3 195/1/3 194/1/3
f 197/1/3 195/1/3 196/1/3
f 200/1/3 199/1/3 198/1/3
f 201/1/3 199/1/3 200/1/3
f 204/1/3 203/1/3 202/1/3
f 205/1/3 203/1/3 204/1/3
f 206/3/3 205/3/3 204/3/3
f 207/3/3 205/3/3 206/3/3
f 211/3/3 209/3/3 208/3/3
f 212/1/3 210/1/3 209/1/3
f 212/3/3 209/3/3 211/3/3
f 213/1/3 210/1/3 212/1/3
f 216/3/3 215/3/3 214/3/3
f 217/3/3 215/3/3 216/3/3
f 218/1/3 217/1/3 216/1/3
f 219/1/3 217/1/3 218/1/3
f 222/3/3 221/3/3 220/3/3
f 223/3/3 221/3/3 222/3/3
f 224/3/4 225/3/4 226/3/4
f 226/3/4 225/3/4 227/3/4
f 228/3/4 229/3/4 232/3/4
f 230/3/4 231/3/4 233/3/4
f 228/3/4 232/3/4 234/3/4
f 232/3/4 233/3/4 234/3/4
f 233/3/4 231/3/4 235/3/4
f 234/3/4 233/3/4 235/3/4
f 236/3/4 237/3/4 238/3/4
f 238/3/4 237/3/4 239/3/4
f 240/1/4 241/1/4 242/1/4
f 242/1/4 241/1/4 243/1/4
f 240/1/4 242/1/4 244/1/4
f 244/1/4 242/1/4 245/1/4
f 243/1/4 241/1/4 246/1/4
f 246/1/4 241/1/4 247/1/4
f 244/3/4 245/3/4 248/3/4
f 245/3/4 246/3/4 248/3/4
f 246/3/4 247/3/4 248/3/4
f 248/3/4 247/3/4 249/3/4
f 250/3/4 251/3/4 253/3/4
f 253/3/4 251/3/4 254/3/4
f 252/1/4 253/1/4 255/1/4
f 253/1/4 254/1/4 255/1/4
f 255/1/4 254/1/4 256/1/4
f 257/3/4 258/3/4 259/3/4
f 259/3/4 258/3/4 260/3/4
f 257/3/4 259/3/4 261/3/4
f 261/3/4 259/3/4 262/3/4
f 263/3/4 264/3/4 266/3/4
f 264/1/4 265/1/4 267/1/4
f 266/3/4 264/3/4 267/3/4
f 267/1/4 265/1/4 268/1/4
f 269/1/4 270/1/4 271/1/4
f 271/1/4 270/1/4 272/1/4
f 273/1/4 274/1/4 275/1/4
f 275/1/4 274/1/4 276/1/4
f 277/1/4 278/1/4 279/1/4
f 279/1/4 278/1/4 280/1/4
f 281/3/4 282/3/4 283/3/4
f 283/3/4 282/3/4 284/3/4
f 287/3/5 286/3/5 285/3/5
f 288/3/5 286/3/5 287/3/5
f 289/3/5 287/3/5 285/3/5
f 290/3/5 286/3/5 288/3/5
f 291/3/5 289/3/5 285/3/5
f 291/3/5 290/3/5 289/3/5
f 292/3/5 286/3/5 290/3/5
f 292/3/5 290/3/5 291/3/5
f 297/2/5 294/2/5 293/2/5
f 298/2/5 294/2/5 297/2/5
f 299/2/5 296/2/5 295/2/5
f 300/2/5 296/2/5 299/2/5
f 303/3/5 302/3/5 301/3/5
f 304/3/5 302/3/5 303/3/5
f 309/2/5 306/2/5 305/2/5
f 310/2/5 306/2/5 309/2/5
f 311/2/5 308/2/5 307/2/5
f 312/2/5 308/2/5 311/2/5
f 313/2/5 308/2/5 312/2/5
f 314/3/5 313/3/5 312/3/5
f 315/3/5 313/3/5 314/3/5
f 320/1/5 317/1/5 316/1/5
f 321/1/5 317/1/5 320/1/5
f 322/1/5 319/1/5 318/1/5
f 323/1/5 319/1/5 322/1/5
f 326/1/5 325/1/5 324/1/5
f 327/1/5 325/1/5 326/1/5
f 330/2/5 329/2/5 328/2/5
f 331/2/5 329/2/5 330/2/5
f 339/3/5 336/3/5 335/3/5
f 340/1/5 333/1/5 332/1/5
f 341/3/5 334/3/5 333/3/5
f 341/1/5 333/1/5 340/1/5
f 342/3/5 334/3/5 341/3/5
f 343/3/5 339/3/5 338/3/5
f 344/1/5 337/1/5 336/1/5
f 344/3/5 339/3/5 343/3/5
f 344/3/5 336/3/5 339/3/5
f 345/1/5 337/1/5 344/1/5
f 348/3/5 347/3/5 346/3/5
f 349/3/5 347/3/5 348/3/5
f 350/3/5 348/3/5 346/3/5
f 351/3/5 347/3/5 349/3/5
f 352/3/5 350/3/5 346/3/5
f 352/3/5 351/3/5 350/3/5
f 353/3/5 347/3/5 351/3/5
f 353/3/5 351/3/5 352/3/5
f 354/3/6 355/3/6 356/3/6
f 356/3/6 355/3/6 357/3/6
f 358/3/6 359/3/6 360/3/6
f 360/3/6 359/3/6 361/3/6
f 362/2/6 363/2/6 364/2/6
f 364/2/6 363/2/6 365/2/6
f 366/2/6 367/2/6 370/2/6
f 370/2/6 367/2/6 371/2/6
f 368/2/6 369/2/6 372/2/6
f 372/2/6 369/2/6 373/2/6
f 377/1/6 378/1/6 380/1/6
f 374/1/6 375/1/6 381/1/6
f 375/3/6 376/3/6 382/3/6
f 381/1/6 375/1/6 382/1/6
f 382/3/6 376/3/6 383/3/6
f 379/3/6 380/3/6 384/3/6
f 380/1/6 378/1/6 385/1/6
f 384/3/6 380/3/6 385/3/6
f 385/1/6 378/1/6 386/1/6
f 387/1/6 388/1/6 389/1/6
f 389/1/6 388/1/6 390/1/6
f 391/3/6 392/3/6 393/3/6
f 393/3/6 392/3/6 394/3/6
f 395/2/6 396/2/6 399/2/6
f 399/2/6 396/2/6 400/2/6
f 397/2/6 398/2/6 401/2/6
f 401/2/6 398/2/6 402/2/6
f 403/1/6 404/1/6 407/1/6
f 407/1/6 404/1/6 408/1/6
f 405/1/6 406/1/6 409/1/6
f 409/1/6 406/1/6 410/1/6
f 411/3/6 412/3/6 413/3/6
f 413/3/6 412/3/6 414/3/6
f 411/3/6 413/3/6 415/3/6
f 414/3/6 412/3/6 416/3/6
f 411/3/6 415/3/6 417/3/6
f 415/3/6 416/3/6 417/3/6
f 416/3/6 412/3/6 418/3/6
f 417/3/6 416/3/6 418/3/6
f 419/1/6 420/1/6 421/1/6
f 421/1/6 420/1/6 422/1/6
f 419/1/6 421/1/6 423/1/6
f 422/1/6 420/1/6 424/1/6
f 419/1/6 423/1/6 425/1/6
f 423/1/6 424/1/6 425/1/6
f 424/1/6 420/1/6 426/1/6
f 425/1/6 424/1/6 426/1/6
