# MagicaVoxel @ Ephtracy

# material
mtllib Starter Sword.mtl
usemtl palette

# normals
vn -1 0 0
vn 1 0 0
vn 0 0 1
vn 0 0 -1
vn 0 -1 0
vn 0 1 0

# texcoords
vt 0.185547 0.5
vt 0.970703 0.5
vt 0.994141 0.5

# verts
v 3 0 -7
v 3 0 -8
v 3 1 -7
v 3 1 -8
v 3 3 -7
v 3 3 -8
v 3 4 -7
v 3 4 -8
v 4 1 -7
v 4 1 -8
v 4 3 -7
v 4 3 -8
v 4 4 -7
v 4 4 -8
v 4 8 -7
v 4 8 -8
v 5 1 -7
v 5 1 -8
v 5 3 -7
v 5 3 -8
v 5 4 -7
v 5 4 -8
v 5 8 -7
v 5 8 -8
v 6 0 -7
v 6 0 -8
v 6 1 -7
v 6 1 -8
v 6 3 -7
v 6 3 -8
v 6 4 -7
v 6 4 -8
v 3 0 -7
v 3 1 -7
v 3 3 -7
v 3 4 -7
v 4 1 -7
v 4 3 -7
v 4 4 -7
v 4 8 -7
v 5 1 -7
v 5 3 -7
v 5 4 -7
v 5 8 -7
v 6 0 -7
v 6 1 -7
v 6 3 -7
v 6 4 -7
v 3 0 -8
v 3 1 -8
v 3 3 -8
v 3 4 -8
v 4 1 -8
v 4 3 -8
v 4 4 -8
v 4 8 -8
v 5 1 -8
v 5 3 -8
v 5 4 -8
v 5 8 -8
v 6 0 -8
v 6 1 -8
v 6 3 -8
v 6 4 -8
v 3 0 -7
v 6 0 -7
v 3 0 -8
v 6 0 -8
v 3 3 -7
v 4 3 -7
v 5 3 -7
v 6 3 -7
v 3 3 -8
v 4 3 -8
v 5 3 -8
v 6 3 -8
v 3 1 -7
v 4 1 -7
v 5 1 -7
v 6 1 -7
v 3 1 -8
v 4 1 -8
v 5 1 -8
v 6 1 -8
v 3 4 -7
v 4 4 -7
v 5 4 -7
v 6 4 -7
v 3 4 -8
v 4 4 -8
v 5 4 -8
v 6 4 -8
v 4 8 -7
v 5 8 -7
v 4 8 -8
v 5 8 -8

# faces
f 3/2/1 2/2/1 1/2/1
f 4/2/1 2/2/1 3/2/1
f 7/2/1 6/2/1 5/2/1
f 8/2/1 6/2/1 7/2/1
f 11/3/1 10/3/1 9/3/1
f 12/3/1 10/3/1 11/3/1
f 15/1/1 14/1/1 13/1/1
f 16/1/1 14/1/1 15/1/1
f 17/3/2 18/3/2 19/3/2
f 19/3/2 18/3/2 20/3/2
f 21/1/2 22/1/2 23/1/2
f 23/1/2 22/1/2 24/1/2
f 25/2/2 26/2/2 27/2/2
f 27/2/2 26/2/2 28/2/2
f 29/2/2 30/2/2 31/2/2
f 31/2/2 30/2/2 32/2/2
f 37/2/3 34/2/3 33/2/3
f 38/2/3 36/2/3 35/2/3
f 39/2/3 36/2/3 38/2/3
f 41/2/3 37/2/3 33/2/3
f 41/3/3 38/3/3 37/3/3
f 42/2/3 39/2/3 38/2/3
f 42/3/3 38/3/3 41/3/3
f 43/1/3 40/1/3 39/1/3
f 43/2/3 39/2/3 42/2/3
f 44/1/3 40/1/3 43/1/3
f 45/2/3 41/2/3 33/2/3
f 46/2/3 41/2/3 45/2/3
f 47/2/3 43/2/3 42/2/3
f 48/2/3 43/2/3 47/2/3
f 49/2/4 50/2/4 53/2/4
f 51/2/4 52/2/4 54/2/4
f 54/2/4 52/2/4 55/2/4
f 49/2/4 53/2/4 57/2/4
f 53/3/4 54/3/4 57/3/4
f 54/2/4 55/2/4 58/2/4
f 57/3/4 54/3/4 58/3/4
f 55/1/4 56/1/4 59/1/4
f 58/2/4 55/2/4 59/2/4
f 59/1/4 56/1/4 60/1/4
f 49/2/4 57/2/4 61/2/4
f 61/2/4 57/2/4 62/2/4
f 58/2/4 59/2/4 63/2/4
f 63/2/4 59/2/4 64/2/4
f 67/2/5 66/2/5 65/2/5
f 68/2/5 66/2/5 67/2/5
f 73/2/5 70/2/5 69/2/5
f 74/2/5 70/2/5 73/2/5
f 75/2/5 72/2/5 71/2/5
f 76/2/5 72/2/5 75/2/5
f 77/2/6 78/2/6 81/2/6
f 81/2/6 78/2/6 82/2/6
f 79/2/6 80/2/6 83/2/6
f 83/2/6 80/2/6 84/2/6
f 85/2/6 86/2/6 89/2/6
f 89/2/6 86/2/6 90/2/6
f 87/2/6 88/2/6 91/2/6
f 91/2/6 88/2/6 92/2/6
f 93/1/6 94/1/6 95/1/6
f 95/1/6 94/1/6 96/1/6
