# MagicaVoxel @ Ephtracy

# material
mtllib sword 4.mtl
usemtl palette

# normals
vn -1 0 0
vn 1 0 0
vn 0 0 1
vn 0 0 -1
vn 0 -1 0
vn 0 1 0

# texcoords
vt 0.693359 0.5
vt 0.970703 0.5
vt 0.994141 0.5

# verts
v 5 0 -4
v 5 0 -7
v 5 1 -4
v 5 1 -5
v 5 1 -6
v 5 1 -7
v 5 3 -4
v 5 3 -5
v 5 3 -6
v 5 3 -7
v 5 4 -4
v 5 4 -5
v 5 4 -6
v 5 4 -7
v 5 9 -3
v 5 9 -4
v 5 9 -7
v 5 9 -8
v 5 10 -3
v 5 10 -4
v 5 10 -5
v 5 10 -6
v 5 10 -7
v 5 10 -8
v 5 11 -4
v 5 11 -5
v 5 11 -6
v 5 11 -7
v 5 12 -5
v 5 12 -6
v 6 0 -4
v 6 0 -7
v 6 1 -4
v 6 1 -5
v 6 1 -6
v 6 1 -7
v 6 3 -4
v 6 3 -5
v 6 3 -6
v 6 3 -7
v 6 4 -4
v 6 4 -5
v 6 4 -6
v 6 4 -7
v 6 9 -3
v 6 9 -4
v 6 9 -7
v 6 9 -8
v 6 10 -3
v 6 10 -4
v 6 10 -5
v 6 10 -6
v 6 10 -7
v 6 10 -8
v 6 11 -4
v 6 11 -5
v 6 11 -6
v 6 11 -7
v 6 12 -5
v 6 12 -6
v 5 9 -3
v 5 10 -3
v 6 9 -3
v 6 10 -3
v 5 0 -4
v 5 1 -4
v 5 3 -4
v 5 4 -4
v 5 10 -4
v 5 11 -4
v 6 0 -4
v 6 1 -4
v 6 3 -4
v 6 4 -4
v 6 10 -4
v 6 11 -4
v 5 1 -5
v 5 3 -5
v 5 4 -5
v 5 10 -5
v 5 11 -5
v 5 12 -5
v 6 1 -5
v 6 3 -5
v 6 4 -5
v 6 10 -5
v 6 11 -5
v 6 12 -5
v 5 9 -7
v 5 10 -7
v 6 9 -7
v 6 10 -7
v 5 9 -4
v 5 10 -4
v 6 9 -4
v 6 10 -4
v 5 1 -6
v 5 3 -6
v 5 4 -6
v 5 10 -6
v 5 11 -6
v 5 12 -6
v 6 1 -6
v 6 3 -6
v 6 4 -6
v 6 10 -6
v 6 11 -6
v 6 12 -6
v 5 0 -7
v 5 1 -7
v 5 3 -7
v 5 4 -7
v 5 10 -7
v 5 11 -7
v 6 0 -7
v 6 1 -7
v 6 3 -7
v 6 4 -7
v 6 10 -7
v 6 11 -7
v 5 9 -8
v 5 10 -8
v 6 9 -8
v 6 10 -8
v 5 0 -4
v 6 0 -4
v 5 0 -7
v 6 0 -7
v 5 3 -4
v 6 3 -4
v 5 3 -5
v 6 3 -5
v 5 3 -6
v 6 3 -6
v 5 3 -7
v 6 3 -7
v 5 9 -3
v 6 9 -3
v 5 9 -4
v 6 9 -4
v 5 9 -7
v 6 9 -7
v 5 9 -8
v 6 9 -8
v 5 10 -4
v 6 10 -4
v 5 10 -5
v 6 10 -5
v 5 10 -6
v 6 10 -6
v 5 10 -7
v 6 10 -7
v 5 1 -4
v 6 1 -4
v 5 1 -5
v 6 1 -5
v 5 1 -6
v 6 1 -6
v 5 1 -7
v 6 1 -7
v 5 4 -4
v 6 4 -4
v 5 4 -5
v 6 4 -5
v 5 4 -6
v 6 4 -6
v 5 4 -7
v 6 4 -7
v 5 10 -3
v 6 10 -3
v 5 10 -4
v 6 10 -4
v 5 10 -7
v 6 10 -7
v 5 10 -8
v 6 10 -8
v 5 11 -4
v 6 11 -4
v 5 11 -5
v 6 11 -5
v 5 11 -6
v 6 11 -6
v 5 11 -7
v 6 11 -7
v 5 12 -5
v 6 12 -5
v 5 12 -6
v 6 12 -6

# faces
f 3/2/1 2/2/1 1/2/1
f 4/2/1 2/2/1 3/2/1
f 5/2/1 2/2/1 4/2/1
f 6/2/1 2/2/1 5/2/1
f 8/3/1 5/3/1 4/3/1
f 9/3/1 5/3/1 8/3/1
f 11/2/1 8/2/1 7/2/1
f 11/2/1 10/2/1 9/2/1
f 11/2/1 9/2/1 8/2/1
f 12/2/1 10/2/1 11/2/1
f 13/2/1 10/2/1 12/2/1
f 14/2/1 10/2/1 13/2/1
f 19/1/1 16/1/1 15/1/1
f 20/1/1 16/1/1 19/1/1
f 21/1/1 13/1/1 12/1/1
f 22/1/1 13/1/1 21/1/1
f 23/1/1 18/1/1 17/1/1
f 24/1/1 18/1/1 23/1/1
f 25/1/1 22/1/1 21/1/1
f 25/1/1 23/1/1 22/1/1
f 25/1/1 21/1/1 20/1/1
f 26/1/1 23/1/1 25/1/1
f 27/1/1 23/1/1 26/1/1
f 28/1/1 23/1/1 27/1/1
f 29/1/1 27/1/1 26/1/1
f 30/1/1 27/1/1 29/1/1
f 31/2/2 32/2/2 33/2/2
f 33/2/2 32/2/2 34/2/2
f 34/2/2 32/2/2 35/2/2
f 35/2/2 32/2/2 36/2/2
f 34/3/2 35/3/2 38/3/2
f 38/3/2 35/3/2 39/3/2
f 37/2/2 38/2/2 41/2/2
f 39/2/2 40/2/2 41/2/2
f 38/2/2 39/2/2 41/2/2
f 41/2/2 40/2/2 42/2/2
f 42/2/2 40/2/2 43/2/2
f 43/2/2 40/2/2 44/2/2
f 45/1/2 46/1/2 49/1/2
f 49/1/2 46/1/2 50/1/2
f 42/1/2 43/1/2 51/1/2
f 51/1/2 43/1/2 52/1/2
f 47/1/2 48/1/2 53/1/2
f 53/1/2 48/1/2 54/1/2
f 51/1/2 52/1/2 55/1/2
f 52/1/2 53/1/2 55/1/2
f 50/1/2 51/1/2 55/1/2
f 55/1/2 53/1/2 56/1/2
f 56/1/2 53/1/2 57/1/2
f 57/1/2 53/1/2 58/1/2
f 56/1/2 57/1/2 59/1/2
f 59/1/2 57/1/2 60/1/2
f 63/1/3 62/1/3 61/1/3
f 64/1/3 62/1/3 63/1/3
f 71/2/3 66/2/3 65/2/3
f 72/2/3 66/2/3 71/2/3
f 73/2/3 68/2/3 67/2/3
f 74/2/3 68/2/3 73/2/3
f 75/1/3 70/1/3 69/1/3
f 76/1/3 70/1/3 75/1/3
f 83/3/3 78/3/3 77/3/3
f 84/3/3 78/3/3 83/3/3
f 85/1/3 80/1/3 79/1/3
f 86/1/3 80/1/3 85/1/3
f 87/1/3 82/1/3 81/1/3
f 88/1/3 82/1/3 87/1/3
f 91/1/3 90/1/3 89/1/3
f 92/1/3 90/1/3 91/1/3
f 93/1/4 94/1/4 95/1/4
f 95/1/4 94/1/4 96/1/4
f 97/3/4 98/3/4 103/3/4
f 103/3/4 98/3/4 104/3/4
f 99/1/4 100/1/4 105/1/4
f 105/1/4 100/1/4 106/1/4
f 101/1/4 102/1/4 107/1/4
f 107/1/4 102/1/4 108/1/4
f 109/2/4 110/2/4 115/2/4
f 115/2/4 110/2/4 116/2/4
f 111/2/4 112/2/4 117/2/4
f 117/2/4 112/2/4 118/2/4
f 113/1/4 114/1/4 119/1/4
f 119/1/4 114/1/4 120/1/4
f 121/1/4 122/1/4 123/1/4
f 123/1/4 122/1/4 124/1/4
f 127/2/5 126/2/5 125/2/5
f 128/2/5 126/2/5 127/2/5
f 131/2/5 130/2/5 129/2/5
f 132/2/5 130/2/5 131/2/5
f 135/2/5 134/2/5 133/2/5
f 136/2/5 134/2/5 135/2/5
f 139/1/5 138/1/5 137/1/5
f 140/1/5 138/1/5 139/1/5
f 143/1/5 142/1/5 141/1/5
f 144/1/5 142/1/5 143/1/5
f 147/1/5 146/1/5 145/1/5
f 148/1/5 146/1/5 147/1/5
f 151/1/5 150/1/5 149/1/5
f 152/1/5 150/1/5 151/1/5
f 153/2/6 154/2/6 155/2/6
f 155/2/6 154/2/6 156/2/6
f 157/2/6 158/2/6 159/2/6
f 159/2/6 158/2/6 160/2/6
f 161/2/6 162/2/6 163/2/6
f 163/2/6 162/2/6 164/2/6
f 165/2/6 166/2/6 167/2/6
f 167/2/6 166/2/6 168/2/6
f 169/1/6 170/1/6 171/1/6
f 171/1/6 170/1/6 172/1/6
f 173/1/6 174/1/6 175/1/6
f 175/1/6 174/1/6 176/1/6
f 177/1/6 178/1/6 179/1/6
f 179/1/6 178/1/6 180/1/6
f 181/1/6 182/1/6 183/1/6
f 183/1/6 182/1/6 184/1/6
f 185/1/6 186/1/6 187/1/6
f 187/1/6 186/1/6 188/1/6
