# MagicaVoxel @ Ephtracy

# material
mtllib sword 3.mtl
usemtl palette

# normals
vn -1 0 0
vn 1 0 0
vn 0 0 1
vn 0 0 -1
vn 0 -1 0
vn 0 1 0

# texcoords
vt 0.880859 0.5
vt 0.892578 0.5
vt 0.896484 0.5
vt 0.900391 0.5
vt 0.904297 0.5
vt 0.970703 0.5
vt 0.994141 0.5

# verts
v -2 0 2
v -2 0 1
v -2 2 2
v -2 2 1
v 1 1 2
v 1 1 1
v 1 2 2
v 1 2 1
v 2 2 2
v 2 2 1
v 2 3 2
v 2 3 1
v 11 2 2
v 11 2 1
v 11 3 2
v 11 3 1
v 11 4 2
v 11 4 1
v -1 1 2
v -1 1 1
v -1 2 2
v -1 2 1
v 8 2 2
v 8 2 1
v 8 3 2
v 8 3 1
v 12 0 2
v 12 0 1
v 12 1 2
v 12 1 1
v 12 3 2
v 12 3 1
v 12 4 2
v 12 4 1
v -2 0 2
v -2 2 2
v -1 0 2
v -1 1 2
v -1 2 2
v 1 0 2
v 1 1 2
v 1 2 2
v 2 0 2
v 2 1 2
v 2 2 2
v 2 3 2
v 3 0 2
v 3 1 2
v 3 2 2
v 3 3 2
v 4 0 2
v 4 1 2
v 4 2 2
v 4 3 2
v 5 0 2
v 5 1 2
v 5 2 2
v 5 3 2
v 6 0 2
v 6 1 2
v 6 2 2
v 6 3 2
v 7 0 2
v 7 1 2
v 7 2 2
v 7 3 2
v 8 0 2
v 8 1 2
v 8 2 2
v 8 3 2
v 9 0 2
v 9 1 2
v 9 2 2
v 10 0 2
v 10 1 2
v 10 2 2
v 11 0 2
v 11 1 2
v 11 2 2
v 11 3 2
v 11 4 2
v 12 0 2
v 12 1 2
v 12 3 2
v 12 4 2
v -2 0 1
v -2 2 1
v -1 0 1
v -1 1 1
v -1 2 1
v 1 0 1
v 1 1 1
v 1 2 1
v 2 0 1
v 2 1 1
v 2 2 1
v 2 3 1
v 3 0 1
v 3 1 1
v 3 2 1
v 3 3 1
v 4 0 1
v 4 1 1
v 4 2 1
v 4 3 1
v 5 0 1
v 5 1 1
v 5 2 1
v 5 3 1
v 6 0 1
v 6 1 1
v 6 2 1
v 6 3 1
v 7 0 1
v 7 1 1
v 7 2 1
v 7 3 1
v 8 0 1
v 8 1 1
v 8 2 1
v 8 3 1
v 9 0 1
v 9 1 1
v 9 2 1
v 10 0 1
v 10 1 1
v 10 2 1
v 11 0 1
v 11 1 1
v 11 2 1
v 11 3 1
v 11 4 1
v 12 0 1
v 12 1 1
v 12 3 1
v 12 4 1
v -2 0 2
v -1 0 2
v 1 0 2
v 2 0 2
v 3 0 2
v 4 0 2
v 5 0 2
v 6 0 2
v 7 0 2
v 8 0 2
v 9 0 2
v 10 0 2
v 11 0 2
v 12 0 2
v -2 0 1
v -1 0 1
v 1 0 1
v 2 0 1
v 3 0 1
v 4 0 1
v 5 0 1
v 6 0 1
v 7 0 1
v 8 0 1
v 9 0 1
v 10 0 1
v 11 0 1
v 12 0 1
v -1 1 2
v 1 1 2
v -1 1 1
v 1 1 1
v -2 2 2
v -1 2 2
v 1 2 2
v 2 2 2
v 8 2 2
v 9 2 2
v 10 2 2
v 11 2 2
v -2 2 1
v -1 2 1
v 1 2 1
v 2 2 1
v 8 2 1
v 9 2 1
v 10 2 1
v 11 2 1
v 2 3 2
v 3 3 2
v 4 3 2
v 5 3 2
v 6 3 2
v 7 3 2
v 8 3 2
v 2 3 1
v 3 3 1
v 4 3 1
v 5 3 1
v 6 3 1
v 7 3 1
v 8 3 1
v 11 4 2
v 12 4 2
v 11 4 1
v 12 4 1

# faces
f 3/6/1 2/6/1 1/6/1
f 4/6/1 2/6/1 3/6/1
f 7/6/1 6/6/1 5/6/1
f 8/6/1 6/6/1 7/6/1
f 11/5/1 10/5/1 9/5/1
f 12/5/1 10/5/1 11/5/1
f 15/1/1 14/1/1 13/1/1
f 16/1/1 14/1/1 15/1/1
f 17/4/1 16/4/1 15/4/1
f 18/4/1 16/4/1 17/4/1
f 19/6/2 20/6/2 21/6/2
f 21/6/2 20/6/2 22/6/2
f 23/3/2 24/3/2 25/3/2
f 25/3/2 24/3/2 26/3/2
f 27/4/2 28/4/2 29/4/2
f 29/4/2 28/4/2 30/4/2
f 29/1/2 30/1/2 31/1/2
f 31/1/2 30/1/2 32/1/2
f 31/4/2 32/4/2 33/4/2
f 33/4/2 32/4/2 34/4/2
f 37/6/3 36/6/3 35/6/3
f 38/6/3 36/6/3 37/6/3
f 39/6/3 36/6/3 38/6/3
f 40/7/3 38/7/3 37/7/3
f 41/7/3 38/7/3 40/7/3
f 43/6/3 41/6/3 40/6/3
f 43/6/3 42/6/3 41/6/3
f 44/6/3 42/6/3 43/6/3
f 45/6/3 42/6/3 44/6/3
f 47/1/3 44/1/3 43/1/3
f 48/2/3 45/2/3 44/2/3
f 48/1/3 44/1/3 47/1/3
f 49/5/3 46/5/3 45/5/3
f 49/2/3 45/2/3 48/2/3
f 50/5/3 46/5/3 49/5/3
f 51/4/3 48/4/3 47/4/3
f 52/1/3 49/1/3 48/1/3
f 52/4/3 48/4/3 51/4/3
f 53/3/3 50/3/3 49/3/3
f 53/1/3 49/1/3 52/1/3
f 54/3/3 50/3/3 53/3/3
f 55/1/3 52/1/3 51/1/3
f 56/2/3 53/2/3 52/2/3
f 56/1/3 52/1/3 55/1/3
f 57/1/3 54/1/3 53/1/3
f 57/2/3 53/2/3 56/2/3
f 58/1/3 54/1/3 57/1/3
f 59/4/3 56/4/3 55/4/3
f 60/1/3 57/1/3 56/1/3
f 60/4/3 56/4/3 59/4/3
f 61/3/3 58/3/3 57/3/3
f 61/1/3 57/1/3 60/1/3
f 62/3/3 58/3/3 61/3/3
f 63/1/3 60/1/3 59/1/3
f 64/2/3 61/2/3 60/2/3
f 64/1/3 60/1/3 63/1/3
f 65/1/3 62/1/3 61/1/3
f 65/2/3 61/2/3 64/2/3
f 66/1/3 62/1/3 65/1/3
f 67/4/3 64/4/3 63/4/3
f 68/1/3 65/1/3 64/1/3
f 68/4/3 64/4/3 67/4/3
f 69/3/3 66/3/3 65/3/3
f 69/1/3 65/1/3 68/1/3
f 70/3/3 66/3/3 69/3/3
f 71/1/3 68/1/3 67/1/3
f 72/2/3 69/2/3 68/2/3
f 72/1/3 68/1/3 71/1/3
f 73/2/3 69/2/3 72/2/3
f 74/4/3 72/4/3 71/4/3
f 75/1/3 73/1/3 72/1/3
f 75/4/3 72/4/3 74/4/3
f 76/1/3 73/1/3 75/1/3
f 77/1/3 75/1/3 74/1/3
f 78/4/3 76/4/3 75/4/3
f 78/1/3 75/1/3 77/1/3
f 79/4/3 76/4/3 78/4/3
f 82/4/3 78/4/3 77/4/3
f 83/1/3 80/1/3 79/1/3
f 83/4/3 78/4/3 82/4/3
f 83/1/3 79/1/3 78/1/3
f 84/4/3 81/4/3 80/4/3
f 84/1/3 80/1/3 83/1/3
f 85/4/3 81/4/3 84/4/3
f 86/6/4 87/6/4 88/6/4
f 88/6/4 87/6/4 89/6/4
f 89/6/4 87/6/4 90/6/4
f 88/7/4 89/7/4 91/7/4
f 91/7/4 89/7/4 92/7/4
f 91/6/4 92/6/4 94/6/4
f 92/6/4 93/6/4 94/6/4
f 94/6/4 93/6/4 95/6/4
f 95/6/4 93/6/4 96/6/4
f 94/1/4 95/1/4 98/1/4
f 95/2/4 96/2/4 99/2/4
f 98/1/4 95/1/4 99/1/4
f 96/5/4 97/5/4 100/5/4
f 99/2/4 96/2/4 100/2/4
f 100/5/4 97/5/4 101/5/4
f 98/4/4 99/4/4 102/4/4
f 99/1/4 100/1/4 103/1/4
f 102/4/4 99/4/4 103/4/4
f 100/3/4 101/3/4 104/3/4
f 103/1/4 100/1/4 104/1/4
f 104/3/4 101/3/4 105/3/4
f 102/1/4 103/1/4 106/1/4
f 103/2/4 104/2/4 107/2/4
f 106/1/4 103/1/4 107/1/4
f 104/1/4 105/1/4 108/1/4
f 107/2/4 104/2/4 108/2/4
f 108/1/4 105/1/4 109/1/4
f 106/4/4 107/4/4 110/4/4
f 107/1/4 108/1/4 111/1/4
f 110/4/4 107/4/4 111/4/4
f 108/3/4 109/3/4 112/3/4
f 111/1/4 108/1/4 112/1/4
f 112/3/4 109/3/4 113/3/4
f 110/1/4 111/1/4 114/1/4
f 111/2/4 112/2/4 115/2/4
f 114/1/4 111/1/4 115/1/4
f 112/1/4 113/1/4 116/1/4
f 115/2/4 112/2/4 116/2/4
f 116/1/4 113/1/4 117/1/4
f 114/4/4 115/4/4 118/4/4
f 115/1/4 116/1/4 119/1/4
f 118/4/4 115/4/4 119/4/4
f 116/3/4 117/3/4 120/3/4
f 119/1/4 116/1/4 120/1/4
f 120/3/4 117/3/4 121/3/4
f 118/1/4 119/1/4 122/1/4
f 119/2/4 120/2/4 123/2/4
f 122/1/4 119/1/4 123/1/4
f 123/2/4 120/2/4 124/2/4
f 122/4/4 123/4/4 125/4/4
f 123/1/4 124/1/4 126/1/4
f 125/4/4 123/4/4 126/4/4
f 126/1/4 124/1/4 127/1/4
f 125/1/4 126/1/4 128/1/4
f 126/4/4 127/4/4 129/4/4
f 128/1/4 126/1/4 129/1/4
f 129/4/4 127/4/4 130/4/4
f 128/4/4 129/4/4 133/4/4
f 130/1/4 131/1/4 134/1/4
f 133/4/4 129/4/4 134/4/4
f 129/1/4 130/1/4 134/1/4
f 131/4/4 132/4/4 135/4/4
f 134/1/4 131/1/4 135/1/4
f 135/4/4 132/4/4 136/4/4
f 151/6/5 138/6/5 137/6/5
f 152/7/5 139/7/5 138/7/5
f 152/6/5 138/6/5 151/6/5
f 153/6/5 140/6/5 139/6/5
f 153/7/5 139/7/5 152/7/5
f 154/1/5 141/1/5 140/1/5
f 154/6/5 140/6/5 153/6/5
f 155/4/5 142/4/5 141/4/5
f 155/1/5 141/1/5 154/1/5
f 156/1/5 143/1/5 142/1/5
f 156/4/5 142/4/5 155/4/5
f 157/4/5 144/4/5 143/4/5
f 157/1/5 143/1/5 156/1/5
f 158/1/5 145/1/5 144/1/5
f 158/4/5 144/4/5 157/4/5
f 159/4/5 146/4/5 145/4/5
f 159/1/5 145/1/5 158/1/5
f 160/1/5 147/1/5 146/1/5
f 160/4/5 146/4/5 159/4/5
f 161/4/5 148/4/5 147/4/5
f 161/1/5 147/1/5 160/1/5
f 162/1/5 149/1/5 148/1/5
f 162/4/5 148/4/5 161/4/5
f 163/4/5 150/4/5 149/4/5
f 163/1/5 149/1/5 162/1/5
f 164/4/5 150/4/5 163/4/5
f 165/7/6 166/7/6 167/7/6
f 167/7/6 166/7/6 168/7/6
f 169/6/6 170/6/6 177/6/6
f 177/6/6 170/6/6 178/6/6
f 171/6/6 172/6/6 179/6/6
f 179/6/6 172/6/6 180/6/6
f 173/2/6 174/2/6 181/2/6
f 174/1/6 175/1/6 182/1/6
f 181/2/6 174/2/6 182/2/6
f 175/4/6 176/4/6 183/4/6
f 182/1/6 175/1/6 183/1/6
f 183/4/6 176/4/6 184/4/6
f 185/5/6 186/5/6 192/5/6
f 186/3/6 187/3/6 193/3/6
f 192/5/6 186/5/6 193/5/6
f 187/1/6 188/1/6 194/1/6
f 193/3/6 187/3/6 194/3/6
f 188/3/6 189/3/6 195/3/6
f 194/1/6 188/1/6 195/1/6
f 189/1/6 190/1/6 196/1/6
f 195/3/6 189/3/6 196/3/6
f 190/3/6 191/3/6 197/3/6
f 196/1/6 190/1/6 197/1/6
f 197/3/6 191/3/6 198/3/6
f 199/4/6 200/4/6 201/4/6
f 201/4/6 200/4/6 202/4/6
