# MagicaVoxel @ Ephtracy

# material
mtllib sword.mtl
usemtl palette

# normals
vn -1 0 0
vn 1 0 0
vn 0 0 1
vn 0 0 -1
vn 0 -1 0
vn 0 1 0

# texcoords
vt 0.0917969 0.5
vt 0.841797 0.5
vt 0.966797 0.5
vt 0.994141 0.5

# verts
v 1 0 -4
v 1 0 -5
v 1 1 -4
v 1 1 -5
v 1 3 -4
v 1 3 -5
v 1 4 -4
v 1 4 -5
v 1 5 -4
v 1 5 -5
v 1 12 -4
v 1 12 -5
v 2 1 -4
v 2 1 -5
v 2 3 -4
v 2 3 -5
v 2 4 -4
v 2 4 -5
v 2 5 -4
v 2 5 -5
v 2 12 -4
v 2 12 -5
v 2 13 -4
v 2 13 -5
v 3 1 -4
v 3 1 -5
v 3 3 -4
v 3 3 -5
v 3 4 -4
v 3 4 -5
v 3 5 -4
v 3 5 -5
v 3 12 -4
v 3 12 -5
v 3 13 -4
v 3 13 -5
v 4 0 -4
v 4 0 -5
v 4 1 -4
v 4 1 -5
v 4 3 -4
v 4 3 -5
v 4 4 -4
v 4 4 -5
v 4 5 -4
v 4 5 -5
v 4 12 -4
v 4 12 -5
v 1 0 -4
v 1 1 -4
v 1 3 -4
v 1 4 -4
v 1 5 -4
v 1 12 -4
v 2 1 -4
v 2 3 -4
v 2 4 -4
v 2 5 -4
v 2 12 -4
v 2 13 -4
v 3 1 -4
v 3 3 -4
v 3 4 -4
v 3 5 -4
v 3 12 -4
v 3 13 -4
v 4 0 -4
v 4 1 -4
v 4 3 -4
v 4 4 -4
v 4 5 -4
v 4 12 -4
v 1 0 -5
v 1 1 -5
v 1 3 -5
v 1 4 -5
v 1 5 -5
v 1 12 -5
v 2 1 -5
v 2 3 -5
v 2 4 -5
v 2 5 -5
v 2 12 -5
v 2 13 -5
v 3 1 -5
v 3 3 -5
v 3 4 -5
v 3 5 -5
v 3 12 -5
v 3 13 -5
v 4 0 -5
v 4 1 -5
v 4 3 -5
v 4 4 -5
v 4 5 -5
v 4 12 -5
v 1 0 -4
v 4 0 -4
v 1 0 -5
v 4 0 -5
v 1 3 -4
v 2 3 -4
v 3 3 -4
v 4 3 -4
v 1 3 -5
v 2 3 -5
v 3 3 -5
v 4 3 -5
v 1 5 -4
v 2 5 -4
v 3 5 -4
v 4 5 -4
v 1 5 -5
v 2 5 -5
v 3 5 -5
v 4 5 -5
v 1 1 -4
v 2 1 -4
v 3 1 -4
v 4 1 -4
v 1 1 -5
v 2 1 -5
v 3 1 -5
v 4 1 -5
v 1 4 -4
v 2 4 -4
v 3 4 -4
v 4 4 -4
v 1 4 -5
v 2 4 -5
v 3 4 -5
v 4 4 -5
v 1 12 -4
v 2 12 -4
v 3 12 -4
v 4 12 -4
v 1 12 -5
v 2 12 -5
v 3 12 -5
v 4 12 -5
v 2 13 -4
v 3 13 -4
v 2 13 -5
v 3 13 -5

# faces
f 3/4/1 2/4/1 1/4/1
f 4/4/1 2/4/1 3/4/1
f 7/4/1 6/4/1 5/4/1
f 8/4/1 6/4/1 7/4/1
f 11/1/1 10/1/1 9/1/1
f 12/1/1 10/1/1 11/1/1
f 15/3/1 14/3/1 13/3/1
f 16/3/1 14/3/1 15/3/1
f 19/4/1 18/4/1 17/4/1
f 20/4/1 18/4/1 19/4/1
f 23/1/1 22/1/1 21/1/1
f 24/1/1 22/1/1 23/1/1
f 25/3/2 26/3/2 27/3/2
f 27/3/2 26/3/2 28/3/2
f 29/4/2 30/4/2 31/4/2
f 31/4/2 30/4/2 32/4/2
f 33/1/2 34/1/2 35/1/2
f 35/1/2 34/1/2 36/1/2
f 37/4/2 38/4/2 39/4/2
f 39/4/2 38/4/2 40/4/2
f 41/4/2 42/4/2 43/4/2
f 43/4/2 42/4/2 44/4/2
f 45/1/2 46/1/2 47/1/2
f 47/1/2 46/1/2 48/1/2
f 55/4/3 50/4/3 49/4/3
f 56/4/3 52/4/3 51/4/3
f 57/4/3 52/4/3 56/4/3
f 58/1/3 54/1/3 53/1/3
f 59/1/3 54/1/3 58/1/3
f 61/4/3 55/4/3 49/4/3
f 61/3/3 56/3/3 55/3/3
f 62/4/3 57/4/3 56/4/3
f 62/3/3 56/3/3 61/3/3
f 62/4/3 58/4/3 57/4/3
f 63/4/3 58/4/3 62/4/3
f 64/2/3 59/2/3 58/2/3
f 64/4/3 58/4/3 63/4/3
f 65/1/3 60/1/3 59/1/3
f 65/2/3 59/2/3 64/2/3
f 66/1/3 60/1/3 65/1/3
f 67/4/3 61/4/3 49/4/3
f 68/4/3 61/4/3 67/4/3
f 69/4/3 63/4/3 62/4/3
f 70/4/3 63/4/3 69/4/3
f 71/1/3 65/1/3 64/1/3
f 72/1/3 65/1/3 71/1/3
f 73/4/4 74/4/4 79/4/4
f 75/4/4 76/4/4 80/4/4
f 80/4/4 76/4/4 81/4/4
f 77/1/4 78/1/4 82/1/4
f 82/1/4 78/1/4 83/1/4
f 73/4/4 79/4/4 85/4/4
f 79/3/4 80/3/4 85/3/4
f 80/4/4 81/4/4 86/4/4
f 85/3/4 80/3/4 86/3/4
f 81/4/4 82/4/4 86/4/4
f 86/4/4 82/4/4 87/4/4
f 82/2/4 83/2/4 88/2/4
f 87/4/4 82/4/4 88/4/4
f 83/1/4 84/1/4 89/1/4
f 88/2/4 83/2/4 89/2/4
f 89/1/4 84/1/4 90/1/4
f 73/4/4 85/4/4 91/4/4
f 91/4/4 85/4/4 92/4/4
f 86/4/4 87/4/4 93/4/4
f 93/4/4 87/4/4 94/4/4
f 88/1/4 89/1/4 95/1/4
f 95/1/4 89/1/4 96/1/4
f 99/4/5 98/4/5 97/4/5
f 100/4/5 98/4/5 99/4/5
f 105/4/5 102/4/5 101/4/5
f 106/4/5 102/4/5 105/4/5
f 107/4/5 104/4/5 103/4/5
f 108/4/5 104/4/5 107/4/5
f 113/1/5 110/1/5 109/1/5
f 114/1/5 110/1/5 113/1/5
f 115/1/5 112/1/5 111/1/5
f 116/1/5 112/1/5 115/1/5
f 117/4/6 118/4/6 121/4/6
f 121/4/6 118/4/6 122/4/6
f 119/4/6 120/4/6 123/4/6
f 123/4/6 120/4/6 124/4/6
f 125/4/6 126/4/6 129/4/6
f 129/4/6 126/4/6 130/4/6
f 127/4/6 128/4/6 131/4/6
f 131/4/6 128/4/6 132/4/6
f 133/1/6 134/1/6 137/1/6
f 137/1/6 134/1/6 138/1/6
f 135/1/6 136/1/6 139/1/6
f 139/1/6 136/1/6 140/1/6
f 141/1/6 142/1/6 143/1/6
f 143/1/6 142/1/6 144/1/6
